<mxfile host="app.diagrams.net" modified="2022-04-27T05:58:42.741Z" agent="5.0 (Windows NT 10.0; Win64; x64) AppleWebKit/537.36 (KHTML, like Gecko) Chrome/100.0.4896.127 Safari/537.36 Edg/100.0.1185.50" etag="ELXeanySXvzS8HnYaqE-" version="17.4.6" type="gitlab">
  <diagram id="p-iTDvjlNqM-9Eat6gZx" name="Page-1">
    <mxGraphModel dx="2017" dy="882" grid="1" gridSize="10" guides="1" tooltips="1" connect="1" arrows="1" fold="1" page="1" pageScale="1" pageWidth="1169" pageHeight="827" math="0" shadow="0">
      <root>
        <mxCell id="0" />
        <mxCell id="1" parent="0" />
        <mxCell id="1E65xfwatkDixIOQpao--1" value="&lt;font style=&quot;font-size: 18px&quot;&gt;Main&lt;/font&gt;" style="rounded=1;whiteSpace=wrap;html=1;fontSize=24;" vertex="1" parent="1">
          <mxGeometry x="-915" y="190" width="60" height="30" as="geometry" />
        </mxCell>
        <mxCell id="1E65xfwatkDixIOQpao--2" value="&lt;font style=&quot;font-size: 18px&quot;&gt;Develop&lt;/font&gt;" style="rounded=1;whiteSpace=wrap;html=1;fontSize=24;" vertex="1" parent="1">
          <mxGeometry x="-930" y="350" width="80" height="30" as="geometry" />
        </mxCell>
        <mxCell id="1E65xfwatkDixIOQpao--3" value="&lt;font style=&quot;font-size: 18px&quot;&gt;Feature&lt;/font&gt;" style="rounded=1;whiteSpace=wrap;html=1;fontSize=24;" vertex="1" parent="1">
          <mxGeometry x="-925" y="480" width="70" height="30" as="geometry" />
        </mxCell>
        <mxCell id="1E65xfwatkDixIOQpao--6" value="" style="endArrow=classic;html=1;rounded=0;exitX=1;exitY=0.5;exitDx=0;exitDy=0;startArrow=none;" edge="1" parent="1" source="1E65xfwatkDixIOQpao--24">
          <mxGeometry width="50" height="50" relative="1" as="geometry">
            <mxPoint x="-690" y="370" as="sourcePoint" />
            <mxPoint x="-120" y="365" as="targetPoint" />
          </mxGeometry>
        </mxCell>
        <mxCell id="1E65xfwatkDixIOQpao--7" value="" style="endArrow=classic;html=1;rounded=0;exitX=1;exitY=0.5;exitDx=0;exitDy=0;startArrow=none;" edge="1" parent="1" source="1E65xfwatkDixIOQpao--19">
          <mxGeometry width="50" height="50" relative="1" as="geometry">
            <mxPoint x="-855" y="494.17" as="sourcePoint" />
            <mxPoint x="-124.99999999999977" y="494.17" as="targetPoint" />
          </mxGeometry>
        </mxCell>
        <mxCell id="1E65xfwatkDixIOQpao--8" value="" style="endArrow=classic;html=1;rounded=0;exitX=1;exitY=0.5;exitDx=0;exitDy=0;startArrow=none;" edge="1" parent="1" source="1E65xfwatkDixIOQpao--10">
          <mxGeometry width="50" height="50" relative="1" as="geometry">
            <mxPoint x="-855" y="204.17" as="sourcePoint" />
            <mxPoint x="-124.99999999999977" y="204.17" as="targetPoint" />
          </mxGeometry>
        </mxCell>
        <mxCell id="1E65xfwatkDixIOQpao--4" value="" style="shape=image;html=1;verticalAlign=top;verticalLabelPosition=bottom;labelBackgroundColor=#ffffff;imageAspect=0;aspect=fixed;image=https://cdn3.iconfinder.com/data/icons/developperss/PNG/Green%20Ball.png" vertex="1" parent="1">
          <mxGeometry x="-780" y="190" width="30" height="30" as="geometry" />
        </mxCell>
        <mxCell id="1E65xfwatkDixIOQpao--9" value="" style="endArrow=none;html=1;rounded=0;exitX=1;exitY=0.5;exitDx=0;exitDy=0;" edge="1" parent="1" target="1E65xfwatkDixIOQpao--4">
          <mxGeometry width="50" height="50" relative="1" as="geometry">
            <mxPoint x="-855" y="204.17000000000007" as="sourcePoint" />
            <mxPoint x="-124.99999999999977" y="204.17000000000007" as="targetPoint" />
          </mxGeometry>
        </mxCell>
        <mxCell id="1E65xfwatkDixIOQpao--10" value="" style="shape=image;html=1;verticalAlign=top;verticalLabelPosition=bottom;labelBackgroundColor=#ffffff;imageAspect=0;aspect=fixed;image=https://cdn3.iconfinder.com/data/icons/developperss/PNG/Green%20Ball.png" vertex="1" parent="1">
          <mxGeometry x="-220" y="190" width="30" height="30" as="geometry" />
        </mxCell>
        <mxCell id="1E65xfwatkDixIOQpao--11" value="" style="endArrow=none;html=1;rounded=0;exitX=1;exitY=0.5;exitDx=0;exitDy=0;startArrow=none;" edge="1" parent="1" source="1E65xfwatkDixIOQpao--4" target="1E65xfwatkDixIOQpao--10">
          <mxGeometry width="50" height="50" relative="1" as="geometry">
            <mxPoint x="-750" y="205" as="sourcePoint" />
            <mxPoint x="-124.99999999999977" y="204.17000000000007" as="targetPoint" />
          </mxGeometry>
        </mxCell>
        <mxCell id="1E65xfwatkDixIOQpao--12" value="" style="shape=image;html=1;verticalAlign=top;verticalLabelPosition=bottom;labelBackgroundColor=#ffffff;imageAspect=0;aspect=fixed;image=https://cdn3.iconfinder.com/data/icons/developperss/PNG/Green%20Ball.png" vertex="1" parent="1">
          <mxGeometry x="-730" y="350" width="30" height="30" as="geometry" />
        </mxCell>
        <mxCell id="1E65xfwatkDixIOQpao--13" value="" style="endArrow=none;html=1;rounded=0;exitX=1;exitY=0.5;exitDx=0;exitDy=0;" edge="1" parent="1" source="1E65xfwatkDixIOQpao--2" target="1E65xfwatkDixIOQpao--12">
          <mxGeometry width="50" height="50" relative="1" as="geometry">
            <mxPoint x="-850" y="365" as="sourcePoint" />
            <mxPoint x="-119.99999999999977" y="365" as="targetPoint" />
          </mxGeometry>
        </mxCell>
        <mxCell id="1E65xfwatkDixIOQpao--14" value="" style="shape=image;html=1;verticalAlign=top;verticalLabelPosition=bottom;labelBackgroundColor=#ffffff;imageAspect=0;aspect=fixed;image=https://cdn3.iconfinder.com/data/icons/developperss/PNG/Green%20Ball.png" vertex="1" parent="1">
          <mxGeometry x="-600" y="350" width="30" height="30" as="geometry" />
        </mxCell>
        <mxCell id="1E65xfwatkDixIOQpao--15" value="" style="endArrow=none;html=1;rounded=0;exitX=1;exitY=0.5;exitDx=0;exitDy=0;startArrow=none;" edge="1" parent="1" source="1E65xfwatkDixIOQpao--12" target="1E65xfwatkDixIOQpao--14">
          <mxGeometry width="50" height="50" relative="1" as="geometry">
            <mxPoint x="-650" y="365" as="sourcePoint" />
            <mxPoint x="-119.99999999999977" y="365" as="targetPoint" />
          </mxGeometry>
        </mxCell>
        <mxCell id="1E65xfwatkDixIOQpao--19" value="" style="shape=image;html=1;verticalAlign=top;verticalLabelPosition=bottom;labelBackgroundColor=#ffffff;imageAspect=0;aspect=fixed;image=https://cdn3.iconfinder.com/data/icons/developperss/PNG/Green%20Ball.png" vertex="1" parent="1">
          <mxGeometry x="-460" y="480" width="30" height="30" as="geometry" />
        </mxCell>
        <mxCell id="1E65xfwatkDixIOQpao--20" value="" style="endArrow=none;html=1;rounded=0;exitX=1;exitY=0.5;exitDx=0;exitDy=0;" edge="1" parent="1" target="1E65xfwatkDixIOQpao--19">
          <mxGeometry width="50" height="50" relative="1" as="geometry">
            <mxPoint x="-855" y="494.1700000000001" as="sourcePoint" />
            <mxPoint x="-124.99999999999977" y="494.1700000000001" as="targetPoint" />
          </mxGeometry>
        </mxCell>
        <mxCell id="1E65xfwatkDixIOQpao--21" value="" style="shape=image;html=1;verticalAlign=top;verticalLabelPosition=bottom;labelBackgroundColor=#ffffff;imageAspect=0;aspect=fixed;image=https://cdn3.iconfinder.com/data/icons/developperss/PNG/Green%20Ball.png" vertex="1" parent="1">
          <mxGeometry x="-420" y="350" width="30" height="30" as="geometry" />
        </mxCell>
        <mxCell id="1E65xfwatkDixIOQpao--22" value="" style="endArrow=none;html=1;rounded=0;exitX=1;exitY=0.5;exitDx=0;exitDy=0;startArrow=none;" edge="1" parent="1" source="1E65xfwatkDixIOQpao--14" target="1E65xfwatkDixIOQpao--21">
          <mxGeometry width="50" height="50" relative="1" as="geometry">
            <mxPoint x="-540" y="365" as="sourcePoint" />
            <mxPoint x="-119.99999999999977" y="365" as="targetPoint" />
          </mxGeometry>
        </mxCell>
        <mxCell id="1E65xfwatkDixIOQpao--24" value="" style="shape=image;html=1;verticalAlign=top;verticalLabelPosition=bottom;labelBackgroundColor=#ffffff;imageAspect=0;aspect=fixed;image=https://cdn3.iconfinder.com/data/icons/developperss/PNG/Green%20Ball.png" vertex="1" parent="1">
          <mxGeometry x="-290" y="350" width="30" height="30" as="geometry" />
        </mxCell>
        <mxCell id="1E65xfwatkDixIOQpao--25" value="" style="endArrow=none;html=1;rounded=0;exitX=1;exitY=0.5;exitDx=0;exitDy=0;startArrow=none;" edge="1" parent="1" source="1E65xfwatkDixIOQpao--21" target="1E65xfwatkDixIOQpao--24">
          <mxGeometry width="50" height="50" relative="1" as="geometry">
            <mxPoint x="-360" y="365" as="sourcePoint" />
            <mxPoint x="-119.99999999999977" y="365" as="targetPoint" />
          </mxGeometry>
        </mxCell>
        <mxCell id="1E65xfwatkDixIOQpao--26" value="" style="endArrow=classic;html=1;rounded=0;" edge="1" parent="1">
          <mxGeometry width="50" height="50" relative="1" as="geometry">
            <mxPoint x="-760" y="240" as="sourcePoint" />
            <mxPoint x="-720" y="340" as="targetPoint" />
          </mxGeometry>
        </mxCell>
        <mxCell id="1E65xfwatkDixIOQpao--27" value="" style="endArrow=classic;html=1;rounded=0;" edge="1" parent="1">
          <mxGeometry width="50" height="50" relative="1" as="geometry">
            <mxPoint x="-580" y="390" as="sourcePoint" />
            <mxPoint x="-560" y="470" as="targetPoint" />
          </mxGeometry>
        </mxCell>
        <mxCell id="1E65xfwatkDixIOQpao--28" value="" style="endArrow=classic;html=1;rounded=0;" edge="1" parent="1">
          <mxGeometry width="50" height="50" relative="1" as="geometry">
            <mxPoint x="-430" y="470" as="sourcePoint" />
            <mxPoint x="-410" y="390" as="targetPoint" />
          </mxGeometry>
        </mxCell>
        <mxCell id="1E65xfwatkDixIOQpao--29" value="" style="endArrow=classic;html=1;rounded=0;" edge="1" parent="1">
          <mxGeometry width="50" height="50" relative="1" as="geometry">
            <mxPoint x="-270" y="340" as="sourcePoint" />
            <mxPoint x="-210" y="230" as="targetPoint" />
          </mxGeometry>
        </mxCell>
        <mxCell id="1E65xfwatkDixIOQpao--31" value="V1" style="text;html=1;align=center;verticalAlign=middle;resizable=0;points=[];autosize=1;strokeColor=none;fillColor=none;" vertex="1" parent="1">
          <mxGeometry x="-780" y="170" width="30" height="20" as="geometry" />
        </mxCell>
        <mxCell id="1E65xfwatkDixIOQpao--32" value="V2" style="text;html=1;align=center;verticalAlign=middle;resizable=0;points=[];autosize=1;strokeColor=none;fillColor=none;" vertex="1" parent="1">
          <mxGeometry x="-220" y="170" width="30" height="20" as="geometry" />
        </mxCell>
        <mxCell id="1E65xfwatkDixIOQpao--16" value="" style="shape=image;html=1;verticalAlign=top;verticalLabelPosition=bottom;labelBackgroundColor=#ffffff;imageAspect=0;aspect=fixed;image=https://cdn3.iconfinder.com/data/icons/developperss/PNG/Green%20Ball.png" vertex="1" parent="1">
          <mxGeometry x="-570" y="480" width="30" height="30" as="geometry" />
        </mxCell>
      </root>
    </mxGraphModel>
  </diagram>
</mxfile>
